# xmcd
#
# Track frame offsets:
#	150
#	12277
#	25204
#	38458
#	48820
#	59228
#	71892
#	85715
#	96925
#	114751
#	131505
#	143530
#
# Disc length: 2144 seconds
#
# Revision: 1
# Processed by: cddbd v1.5.2PL0 Copyright (c) Steve Scherf et al.
# Submitted via: audiograbber 1.83.01
#
DISCID=96085e0c
DTITLE=Kentucky Mountain Trio - I'm Going Home
DYEAR=1900
DGENRE=
TTITLE0=So Happy I'll Be
TTITLE1=A Place Called Heaven
TTITLE2=Cast the First Stone
TTITLE3=I am the Man Thomas
TTITLE4=God Had a Plan
TTITLE5=Prayer Bells of Heaven
TTITLE6=Jesus Said
TTITLE7=I'll Sail Away
TTITLE8=The Prettiest Flower There
TTITLE9=This Memorial Day
TTITLE10=God Is There
TTITLE11=I'm Going Home
EXTD=
EXTT0=
EXTT1=
EXTT2=
EXTT3=
EXTT4=
EXTT5=
EXTT6=
EXTT7=
EXTT8=
EXTT9=
EXTT10=
EXTT11=
PLAYORDER=
